<?xml version="1.0" encoding="utf-8" standalone="yes"?>
<!DOCTYPE svg PUBLIC "-//W3C//DTD SVG 1.1//EN" "http://www.w3.org/Graphics/SVG/1.1/DTD/svg11.dtd">
<svg width="756" height="510" viewBox="0 0 756 510" style="fill:none;stroke:none;fill-rule:evenodd;clip-rule:evenodd;stroke-linecap:round;stroke-linejoin:round;stroke-miterlimit:1.5;" version="1.1" xmlns="http://www.w3.org/2000/svg" xmlns:xlink="http://www.w3.org/1999/xlink"><style class="text-font-style fontImports" data-font-family="Roboto">@import url(https://fonts.googleapis.com/css2?family=Roboto:wght@400;700&amp;amp;display=block);</style><g id="items" style="isolation: isolate"><g id="blend" style="mix-blend-mode: normal"><g id="g-root-ro_9lvukpl5czs-fill" data-item-order="-19800" transform="translate(314, 212)"><g id="ro_9lvukpl5czs-fill-merged" stroke="none" fill="#f4f4f4"><g><path d="M34 10 H118C118 10 142 10 142 34 V136C142 136 142 160 118 160 H34C34 160 10 160 10 136 V34C10 34 10 10 34 10"></path></g></g></g><g id="g-root-ro_94mi64pl14wa-fill" data-item-order="-13608" transform="translate(14, 320)"><g id="ro_94mi64pl14wa-fill-merged" stroke="none" fill="#4f91fc"><g><path d="M22 10 H250C250 10 262 10 262 22 V52C262 52 262 64 250 64 H22C22 64 10 64 10 52 V22C10 22 10 10 22 10"></path></g></g></g><g id="g-root-ro_4m35oplaya4-fill" data-item-order="-12312" transform="translate(494, 320)"><g id="ro_4m35oplaya4-fill-merged" stroke="none" fill="#ffe711"><g><path d="M22 10 H226C226 10 238 10 238 22 V52C238 52 238 64 226 64 H22C22 64 10 64 10 52 V22C10 22 10 10 22 10"></path></g></g></g><g id="g-root-ro_v2zdkspkybye-fill" data-item-order="-11664" transform="translate(426, 122)"><g id="ro_v2zdkspkybye-fill-merged" stroke="none" fill="#1ac3fb"><g><path d="M22 10 H214C214 10 226 10 226 22 V52C226 52 226 64 214 64 H22C22 64 10 64 10 52 V22C10 22 10 10 22 10"></path></g></g></g><g id="g-root-ro_91i4qkpl84xx-fill" data-item-order="-11016" transform="translate(130, 398)"><g id="ro_91i4qkpl84xx-fill-merged" stroke="none" fill="#fb6762"><g><path d="M22 10 H202C202 10 214 10 214 22 V52C214 52 214 64 202 64 H22C22 64 10 64 10 52 V22C10 22 10 10 22 10"></path></g></g></g><g id="g-root-ro_qns9dopl9ix7-fill" data-item-order="-11016" transform="translate(494, 200)"><g id="ro_qns9dopl9ix7-fill-merged" stroke="none" fill="#cb68f9"><g><path d="M22 10 H202C202 10 214 10 214 22 V52C214 52 214 64 202 64 H22C22 64 10 64 10 52 V22C10 22 10 10 22 10"></path></g></g></g><g id="g-root-ro_hx54zgpkzoqo-fill" data-item-order="-9720" transform="translate(86, 200)"><g id="ro_hx54zgpkzoqo-fill-merged" stroke="none" fill="#43dd93"><g><path d="M22 10 H178C178 10 190 10 190 22 V52C190 52 190 64 178 64 H22C22 64 10 64 10 52 V22C10 22 10 10 22 10"></path></g></g></g><g id="g-root-ro_1lyn1j0plf7yh-fill" data-item-order="-8424" transform="translate(178, 122)"><g id="ro_1lyn1j0plf7yh-fill-merged" stroke="none" fill="#f366bb"><g><path d="M22 10 H154C154 10 166 10 166 22 V52C166 52 166 64 154 64 H22C22 64 10 64 10 52 V22C10 22 10 10 22 10"></path></g></g></g><g id="g-root-ro_2qr24pku4g2-fill" data-item-order="-5832" transform="translate(426, 398)"><g id="ro_2qr24pku4g2-fill-merged" stroke="none" fill="#a6da37"><g><path d="M22 10 H106C106 10 118 10 118 22 V52C118 52 118 64 106 64 H22C22 64 10 64 10 52 V22C10 22 10 10 22 10"></path></g></g></g><g id="g-root-cu_147zi4cplf766-fill" data-item-order="0" transform="translate(334, 362)"></g><g id="g-root-cu_v2zgqkpku32f-fill" data-item-order="0" transform="translate(402, 149)"></g><g id="g-root-cu_1hjg0hoplf5ky-fill" data-item-order="0" transform="translate(266, 227)"></g><g id="g-root-tx_nexussys_v2zgqkpku32i-fill" data-item-order="0" transform="translate(110, 38)"><g id="tx_nexussys_v2zgqkpku32i-fill-merged" stroke="none" fill="#f4f4f4"><g><text style="font: bold 25px Roboto, sans-serif; white-space: pre;" font-weight="bold" font-size="25px" font-family="Roboto, sans-serif"><tspan x="16.04" y="45.6" dominant-baseline="ideographic">NEXUS System Architecture and Interactions</tspan></text></g></g></g><g id="g-root-cu_18nt08splf6dp-fill" data-item-order="0" transform="translate(446, 227)"></g><g id="g-root-cu_zs5zzwplf7yk-fill" data-item-order="0" transform="translate(334, 149)"></g><g id="g-root-cu_147zi4cplf763-fill" data-item-order="0" transform="translate(266, 312)"></g><g id="g-root-cu_1d3mid8plf6dc-fill" data-item-order="0" transform="translate(446, 312)"></g><g id="g-root-cu_zs5zzwplf7yh-fill" data-item-order="0" transform="translate(402, 362)"></g><g id="g-root-ic_acce_4pfdz0pl5c7j-fill" data-item-order="999997696" transform="translate(356, 236)"><g id="ic_acce_4pfdz0pl5c7j-fill-merged" stroke="none" fill="#2c2c2c"><g><path d="M43.2 35.28C43.242 35.103 43.18 34.917 43.04 34.8C42.065 33.955 41.503 32.73 41.5 31.44C41.501 31.048 41.555 30.658 41.66 30.28C41.725 30.08 41.652 29.861 41.48 29.74C38.711 27.737 35.415 26.59 32 26.44 H31.84C31.598 26.419 31.374 26.569 31.3 26.8C30.7 28.957 28.739 30.452 26.5 30.46C26.469 30.442 26.431 30.442 26.4 30.46C25.941 33.009 25.881 35.613 26.22 38.18C26.256 38.399 26.423 38.574 26.64 38.62C31.078 39.35 35.372 40.781 39.36 42.86C39.584 42.966 39.852 42.899 40 42.7C41.554 40.466 42.642 37.943 43.2 35.28 M37.24 46C37.353 45.883 37.405 45.72 37.38 45.56C37.356 45.394 37.251 45.252 37.1 45.18C34.151 43.739 31.033 42.67 27.82 42C27.643 41.958 27.457 42.02 27.34 42.16C27.221 42.29 27.183 42.474 27.24 42.64C27.546 43.55 27.914 44.439 28.34 45.3C29.209 46.959 30.299 48.493 31.58 49.86C31.744 50.038 32.009 50.08 32.22 49.96C33.959 48.726 35.635 47.404 37.24 46 M22.6 38.2C22.758 38.203 22.908 38.129 23 38C23.095 37.889 23.145 37.746 23.14 37.6C22.859 34.929 22.994 32.23 23.54 29.6C23.565 29.557 23.565 29.503 23.54 29.46C22.862 28.933 22.326 28.246 21.98 27.46C21.897 27.242 21.669 27.116 21.44 27.16C17.222 27.918 13.313 29.876 10.18 32.8C10.095 32.885 10.045 33 10.04 33.12 V33.94C10.044 35.54 10.211 37.135 10.54 38.7C10.563 38.834 10.643 38.951 10.76 39.02C10.879 39.081 11.021 39.081 11.14 39.02C14.902 38.203 18.76 37.927 22.6 38.2 M28.46 51.82C28.613 51.767 28.727 51.638 28.76 51.48C28.799 51.326 28.761 51.162 28.66 51.04C27.487 49.685 26.48 48.194 25.66 46.6C24.871 45.033 24.261 43.383 23.84 41.68C23.79 41.472 23.613 41.32 23.4 41.3C19.586 40.958 15.743 41.194 12 42C11.856 42.036 11.733 42.13 11.66 42.26C11.599 42.386 11.599 42.534 11.66 42.66C13.356 46.947 16.252 50.655 20 53.34C20.098 53.365 20.202 53.365 20.3 53.34C23.09 53.334 25.855 52.819 28.46 51.82 M47.86 36C47.74 35.839 47.53 35.774 47.34 35.84C47.071 35.914 46.797 35.968 46.52 36C46.307 36.02 46.13 36.172 46.08 36.38C44.92 41.7 41.82 47.08 34.58 52.06C34.463 52.156 34.385 52.291 34.36 52.44C34.361 52.595 34.418 52.744 34.52 52.86C36.214 54.378 37.997 55.794 39.86 57.1C39.991 57.171 40.149 57.171 40.28 57.1C45.435 55.697 49.975 52.614 53.18 48.34C53.264 48.232 53.3 48.095 53.28 47.96C52.497 43.584 50.634 39.473 47.86 36 M21.4 24.12C21.587 24.091 21.742 23.96 21.8 23.78C22.442 21.959 24.079 20.673 26 20.48C26.073 20.476 26.136 20.429 26.16 20.36C27.694 16.928 29.715 13.735 32.16 10.88C32.277 10.719 32.277 10.501 32.16 10.34C32.108 10.171 31.972 10.042 31.8 10C22 10.919 13.754 17.73 11 27.18C10.935 27.38 11.008 27.599 11.18 27.72C11.347 27.84 11.573 27.84 11.74 27.72C14.685 25.882 17.97 24.657 21.4 24.12 M31.54 54.1C31.373 53.98 31.147 53.98 30.98 54.1C29.462 54.801 27.882 55.357 26.26 55.76C26.047 55.822 25.9 56.018 25.9 56.24C25.9 56.462 26.047 56.658 26.26 56.72C28.752 57.57 31.367 58.003 34 58 H34.6C34.807 57.989 34.988 57.855 35.06 57.66C35.125 57.46 35.052 57.241 34.88 57.12C33.84 56.18 32.7 55.2 31.54 54.1 M47.5 26.88C47.507 27.072 47.624 27.243 47.8 27.32C49.435 28.039 50.493 29.654 50.5 31.44C50.504 32.133 50.347 32.818 50.04 33.44C49.92 33.607 49.92 33.833 50.04 34C52.24 36.752 53.945 39.865 55.08 43.2C55.142 43.402 55.329 43.54 55.54 43.54C55.745 43.56 55.936 43.435 56 43.24C57.285 40.327 57.966 37.184 58 34C58.02 25.588 53.634 17.78 46.44 13.42C46.269 13.311 46.051 13.311 45.88 13.42C45.717 13.538 45.645 13.746 45.7 13.94C46.787 18.171 47.391 22.513 47.5 26.88 M29.22 20.76C29.125 20.979 29.191 21.235 29.38 21.38C30.066 21.859 30.617 22.506 30.98 23.26C31.088 23.483 31.348 23.587 31.58 23.5 H32C36.109 23.662 40.074 25.056 43.38 27.5C43.543 27.611 43.757 27.611 43.92 27.5L44.2 27.38C44.383 27.3 44.501 27.119 44.5 26.92C44.332 21.701 43.492 16.525 42 11.52C41.944 11.342 41.786 11.216 41.6 11.2C40.164 10.71 38.684 10.362 37.18 10.16C37.022 10.14 36.865 10.2 36.76 10.32C33.754 13.416 31.214 16.933 29.22 20.76"></path></g></g></g><g id="g-root-ic_cog_dhbmv0pkzor3-fill" data-item-order="999999100" transform="translate(224, 212)"><g id="ic_cog_dhbmv0pkzor3-fill-merged" stroke="none" fill="#2c2c2c"><g><path d="M14.725 29.175C11.978 29.767 10.013 32.19 10 35 V36.25C10 37.355 10.895 38.25 12 38.25 H17C18.105 38.25 19 37.355 19 36.25C19 35.145 19.895 34.25 21 34.25 H29C30.105 34.25 31 35.145 31 36.25C31 37.35 31.888 38.243 32.987 38.25 H37.987C38.52 38.253 39.032 38.044 39.41 37.669C39.788 37.293 40 36.783 40 36.25 V35C40.001 32.188 38.046 29.755 35.3 29.15C28.503 27.842 21.519 27.851 14.725 29.175 M14.313 27.337C16.082 26.961 17.873 26.693 19.675 26.538C19.727 26.358 19.756 26.174 19.763 25.988C19.763 23.095 22.108 20.751 25 20.751C27.892 20.751 30.237 23.095 30.238 25.987 V26.537C32.066 26.69 33.882 26.961 35.675 27.35C36.849 27.605 37.948 28.126 38.887 28.875C39.078 27.924 39.175 26.957 39.175 25.987C39.173 25.411 39.139 24.835 39.075 24.263C38.977 23.584 38.421 23.064 37.737 23.013L35.688 22.838C35.466 22.098 35.173 21.382 34.813 20.7L36.138 19.15C36.609 18.643 36.656 17.873 36.25 17.313C35.521 16.381 34.681 15.542 33.75 14.813C33.206 14.422 32.465 14.458 31.962 14.9L30.325 16.163C29.647 15.79 28.93 15.493 28.188 15.275L28.025 13.225C27.968 12.546 27.449 11.997 26.775 11.9C25.63 11.75 24.47 11.75 23.325 11.9C22.651 11.997 22.132 12.546 22.075 13.225L21.813 15.275C21.07 15.493 20.353 15.79 19.675 16.163L18.112 14.837C17.61 14.396 16.869 14.359 16.325 14.75C15.364 15.494 14.498 16.355 13.75 17.313C13.354 17.857 13.385 18.603 13.825 19.112L15.163 20.663C14.802 21.345 14.509 22.061 14.287 22.8L12.238 22.975C11.554 23.027 10.998 23.546 10.9 24.225C10.836 24.798 10.802 25.374 10.8 25.95C10.798 26.932 10.894 27.912 11.087 28.875C12.035 28.13 13.137 27.604 14.313 27.338"></path></g></g></g><g id="g-root-ic_spar_zissjgpl9laa-fill" data-item-order="999999100" transform="translate(506, 212)"><g id="ic_spar_zissjgpl9laa-fill-merged" stroke="none" fill="#2c2c2c"><g><path d="M34.253 11.342C34.166 10.903 33.781 10.585 33.333 10.585C32.884 10.585 32.499 10.903 32.412 11.342C31.974 13.583 30.212 15.355 28.056 15.789C27.619 15.877 27.305 16.262 27.305 16.708C27.305 17.153 27.619 17.538 28.056 17.626C30.214 18.061 31.972 19.83 32.412 22.07C32.499 22.51 32.884 22.827 33.333 22.827C33.781 22.827 34.166 22.51 34.253 22.07C34.691 19.831 36.452 18.061 38.609 17.628C39.046 17.539 39.36 17.155 39.36 16.709C39.36 16.263 39.046 15.879 38.609 15.79C36.452 15.355 34.693 13.584 34.253 11.342 M10.637 19.995C10.637 19.305 11.197 18.745 11.887 18.745 H24.79C25.48 18.745 26.04 19.305 26.04 19.995C26.04 20.685 25.48 21.245 24.79 21.245 H11.887C11.197 21.245 10.637 20.685 10.637 19.995 M11.887 24.8C11.197 24.8 10.637 25.36 10.637 26.05C10.637 26.74 11.197 27.3 11.887 27.3 H37.845C38.535 27.3 39.095 26.74 39.095 26.05C39.095 25.36 38.535 24.8 37.845 24.8 H11.887 M10.637 32.11C10.637 31.42 11.197 30.86 11.887 30.86 H37.845C38.535 30.86 39.095 31.42 39.095 32.11C39.095 32.8 38.535 33.36 37.845 33.36 H11.887C11.197 33.36 10.637 32.8 10.637 32.11 M11.887 36.914C11.197 36.914 10.637 37.473 10.637 38.164C10.637 38.854 11.197 39.414 11.887 39.414 H37.845C38.535 39.414 39.095 38.854 39.095 38.164C39.095 37.473 38.535 36.914 37.845 36.914 H11.887"></path></g></g></g><g id="g-root-ic_pict_zisvp8pkyb65-fill" data-item-order="999999100" transform="translate(438, 134)"><g id="ic_pict_zisvp8pkyb65-fill-merged" stroke="none" fill="#2c2c2c"><g><path d="M17.188 17.5C17.878 17.5 18.438 16.94 18.438 16.25 V12.5 H29.487L32.188 15.2 V16.25C32.188 16.94 32.747 17.5 33.438 17.5C34.128 17.5 34.688 16.94 34.688 16.25 V14.688C34.703 14.338 34.572 13.998 34.325 13.75L31.25 10.738C30.783 10.268 30.149 10.003 29.487 10 H18.438C17.057 10 15.938 11.119 15.938 12.5 V16.25C15.938 16.94 16.497 17.5 17.188 17.5 M36.875 18.75 H13.125C11.399 18.75 10 20.149 10 21.875 V27.5C10 29.226 11.399 30.625 13.125 30.625 H16.25 V38.438C16.25 39.3 16.95 40 17.813 40 H32.813C33.675 40 34.375 39.3 34.375 38.438 V30.625 H36.875C38.601 30.625 40 29.226 40 27.5 V21.875C40 20.149 38.601 18.75 36.875 18.75 M14.375 24.375C13.685 24.375 13.125 23.815 13.125 23.125C13.125 22.435 13.685 21.875 14.375 21.875C15.065 21.875 15.625 22.435 15.625 23.125C15.625 23.815 15.065 24.375 14.375 24.375 M31.875 36.875C31.875 37.22 31.595 37.5 31.25 37.5 H19.375C19.03 37.5 18.75 37.22 18.75 36.875 V25.625C18.75 25.28 19.03 25 19.375 25 H31.25C31.595 25 31.875 25.28 31.875 25.625 V36.875 M28.362 29.863C28.271 29.65 28.068 29.506 27.838 29.487C27.609 29.461 27.386 29.568 27.262 29.762L25.188 32.85L23.125 31.163C22.981 31.047 22.793 31.001 22.612 31.038C22.426 31.077 22.266 31.195 22.175 31.362L20.125 35.338C20.018 35.528 20.018 35.76 20.125 35.95C20.242 36.134 20.444 36.247 20.663 36.25 H30C30.21 36.25 30.406 36.147 30.525 35.975C30.625 35.792 30.625 35.571 30.525 35.388L28.362 29.863"></path></g></g></g><g id="g-root-ic_404_i09if0pl143l-fill" data-item-order="999999100" transform="translate(224, 332)"><g id="ic_404_i09if0pl143l-fill-merged" stroke="none" fill="#2c2c2c"><g><path d="M25.063 30.938C26.616 30.938 27.875 29.678 27.875 28.125 V25.625C27.875 24.072 26.616 22.813 25.063 22.813C23.509 22.813 22.25 24.072 22.25 25.625 V28.125C22.25 29.678 23.509 30.938 25.063 30.938 M24.125 25.625C24.125 25.107 24.545 24.688 25.063 24.688C25.58 24.688 26 25.107 26 25.625 V28.125C26 28.643 25.58 29.063 25.063 29.063C24.545 29.063 24.125 28.643 24.125 28.125 V25.625 M21 23.75C21.006 23.424 20.84 23.12 20.563 22.948C20.286 22.776 19.939 22.763 19.65 22.913C17.413 24.016 15.835 26.119 15.4 28.575C15.361 28.848 15.438 29.124 15.613 29.337C15.788 29.551 16.049 29.674 16.325 29.675 H18.825C18.908 29.678 18.986 29.714 19.042 29.775C19.099 29.836 19.128 29.917 19.125 30C19.125 30.518 19.545 30.938 20.063 30.938C20.58 30.938 21 30.518 21 30 V23.75 M18.575 26.087C18.661 25.987 18.802 25.952 18.925 26C19.029 26.044 19.105 26.138 19.125 26.25 V27.5C19.125 27.673 18.985 27.813 18.813 27.813 H18.025C17.918 27.811 17.818 27.754 17.763 27.663C17.711 27.569 17.711 27.456 17.763 27.363C17.979 26.905 18.252 26.477 18.575 26.087 M34.738 23.75C34.735 23.424 34.565 23.122 34.287 22.95C34.008 22.794 33.667 22.794 33.388 22.95C31.15 24.054 29.572 26.156 29.137 28.612C29.087 28.886 29.165 29.167 29.35 29.375C29.525 29.588 29.787 29.712 30.063 29.713 H32.563C32.735 29.713 32.875 29.852 32.875 30.025C32.875 30.543 33.295 30.963 33.813 30.963C34.33 30.963 34.75 30.543 34.75 30.025 V23.75 M32.313 26.075C32.395 25.977 32.53 25.942 32.65 25.987C32.776 26.034 32.86 26.153 32.862 26.287 V27.538C32.863 27.71 32.723 27.85 32.55 27.85 H31.763C31.653 27.857 31.55 27.798 31.5 27.7C31.451 27.606 31.451 27.494 31.5 27.4C31.713 26.925 31.986 26.48 32.313 26.075 M40 15.938C40 13.866 38.321 12.188 36.25 12.188 H13.75C11.679 12.188 10 13.866 10 15.938 V34.063C10 36.134 11.679 37.813 13.75 37.813 H36.25C38.321 37.813 40 36.134 40 34.063 V15.938 M22.063 14.688C22.29 14.32 22.692 14.096 23.125 14.096C23.558 14.096 23.96 14.32 24.188 14.688C24.437 15.067 24.437 15.558 24.188 15.938C23.96 16.305 23.558 16.529 23.125 16.529C22.692 16.529 22.29 16.305 22.063 15.938C21.813 15.558 21.813 15.067 22.063 14.688 M17.688 14.688C17.915 14.32 18.317 14.096 18.75 14.096C19.183 14.096 19.585 14.32 19.813 14.688C20.062 15.067 20.062 15.558 19.813 15.938C19.585 16.305 19.183 16.529 18.75 16.529C18.317 16.529 17.915 16.305 17.688 15.938C17.438 15.558 17.438 15.067 17.688 14.688 M13.238 14.8C13.434 14.384 13.844 14.109 14.304 14.086C14.764 14.062 15.199 14.293 15.438 14.688C15.687 15.067 15.687 15.558 15.438 15.938C15.21 16.305 14.808 16.529 14.375 16.529C13.942 16.529 13.54 16.305 13.313 15.938C13.196 15.749 13.131 15.534 13.125 15.313C13.13 15.136 13.168 14.962 13.238 14.8 M37.5 34.063C37.5 34.753 36.94 35.313 36.25 35.313 H13.75C13.06 35.313 12.5 34.753 12.5 34.063 V18.75C12.5 18.577 12.64 18.438 12.813 18.438 H37.188C37.36 18.438 37.5 18.577 37.5 18.75 V34.063"></path></g></g></g><g id="g-root-ic_badg_9093ekplaxhf-fill" data-item-order="999999100" transform="translate(506, 332)"><g id="ic_badg_9093ekplaxhf-fill-merged" stroke="none" fill="#2c2c2c"><g><path d="M27.5 34.625C27.5 33.935 26.94 33.375 26.25 33.375 H13.75C13.06 33.375 12.5 32.815 12.5 32.125 V16.813C12.5 16.64 12.64 16.5 12.813 16.5 H37.188C37.36 16.5 37.5 16.64 37.5 16.813 V19.625C37.5 20.315 38.06 20.875 38.75 20.875C39.44 20.875 40 20.315 40 19.625 V14C40 11.929 38.321 10.25 36.25 10.25 H13.75C11.679 10.25 10 11.929 10 14 V32.125C10 34.196 11.679 35.875 13.75 35.875 H26.25C26.94 35.875 27.5 35.315 27.5 34.625 M22.063 12.75C22.29 12.382 22.692 12.158 23.125 12.158C23.558 12.158 23.96 12.382 24.188 12.75C24.304 12.938 24.369 13.154 24.375 13.375C24.369 13.596 24.304 13.812 24.188 14C23.96 14.368 23.558 14.592 23.125 14.592C22.692 14.592 22.29 14.368 22.063 14C21.946 13.812 21.881 13.596 21.875 13.375C21.881 13.154 21.946 12.938 22.063 12.75 M17.688 12.75C17.915 12.382 18.317 12.158 18.75 12.158C19.183 12.158 19.585 12.382 19.813 12.75C19.929 12.938 19.994 13.154 20 13.375C19.994 13.596 19.929 13.812 19.813 14C19.585 14.368 19.183 14.592 18.75 14.592C18.317 14.592 17.915 14.368 17.688 14C17.571 13.812 17.506 13.596 17.5 13.375C17.506 13.154 17.571 12.938 17.688 12.75 M13.238 12.863C13.434 12.446 13.844 12.172 14.304 12.148C14.764 12.125 15.199 12.356 15.438 12.75C15.554 12.938 15.619 13.154 15.625 13.375C15.619 13.596 15.554 13.812 15.438 14C15.21 14.368 14.808 14.592 14.375 14.592C13.942 14.592 13.54 14.368 13.313 14C13.196 13.812 13.131 13.596 13.125 13.375C13.131 13.199 13.169 13.025 13.238 12.863 M34.063 34.213C32.895 34.211 31.796 33.665 31.088 32.737C31.037 32.677 30.966 32.637 30.887 32.625 H30.688C30.597 32.606 30.502 32.629 30.43 32.687C30.357 32.745 30.314 32.832 30.313 32.925 V39.175C30.315 39.417 30.456 39.635 30.675 39.737C30.894 39.838 31.152 39.805 31.337 39.65L33.838 37.55C33.951 37.448 34.124 37.448 34.237 37.55L36.737 39.65C36.923 39.805 37.181 39.838 37.4 39.737C37.619 39.635 37.76 39.417 37.762 39.175 V32.925C37.76 32.834 37.719 32.747 37.65 32.688C37.573 32.624 37.471 32.601 37.375 32.625 H37.188C37.109 32.637 37.038 32.677 36.987 32.737C36.298 33.661 35.215 34.207 34.063 34.213 M39.375 25.25C39.375 23.869 38.256 22.75 36.875 22.75C36.742 22.737 36.608 22.737 36.475 22.75C36.349 22.776 36.22 22.721 36.15 22.612C35.687 21.911 34.903 21.488 34.063 21.488C33.222 21.488 32.438 21.911 31.975 22.612C31.905 22.721 31.776 22.776 31.65 22.75C31.517 22.737 31.383 22.737 31.25 22.75C29.869 22.75 28.75 23.869 28.75 25.25C28.755 25.865 28.986 26.457 29.4 26.913C29.5 27.036 29.5 27.214 29.4 27.337C28.747 28.071 28.584 29.118 28.983 30.015C29.381 30.913 30.268 31.493 31.25 31.5C31.383 31.513 31.517 31.513 31.65 31.5C31.776 31.481 31.901 31.534 31.975 31.637C32.438 32.339 33.222 32.762 34.063 32.762C34.903 32.762 35.687 32.339 36.15 31.637C36.224 31.534 36.349 31.481 36.475 31.5C36.608 31.513 36.742 31.513 36.875 31.5C38.256 31.5 39.375 30.381 39.375 29C39.377 28.388 39.155 27.796 38.75 27.337C38.639 27.218 38.639 27.032 38.75 26.913C39.155 26.454 39.377 25.862 39.375 25.25 M34.063 29C33.027 29 32.188 28.161 32.188 27.125C32.188 26.089 33.027 25.25 34.063 25.25C35.098 25.25 35.938 26.089 35.938 27.125C35.938 28.161 35.098 29 34.063 29"></path></g></g></g><g id="g-root-ic_ques_1uua1rwplf75s-fill" data-item-order="999999100" transform="translate(292, 134)"><g id="ic_ques_1uua1rwplf75s-fill-merged" stroke="none" fill="#2c2c2c"><g><path d="M24.163 25.525C24.285 25.39 24.336 25.204 24.3 25.025C24.274 24.85 24.174 24.695 24.025 24.6C22.532 23.644 20.798 23.132 19.025 23.125C14.87 23.128 11.205 25.848 10 29.825C9.945 30.014 9.982 30.218 10.1 30.375C10.215 30.536 10.402 30.629 10.6 30.625 H21.425C21.728 30.629 21.988 30.411 22.038 30.112C22.344 28.428 23.076 26.849 24.163 25.525 M12.813 15.938C12.813 19.217 15.471 21.875 18.75 21.875C22.029 21.875 24.688 19.217 24.688 15.938C24.688 12.658 22.029 10 18.75 10C15.471 10 12.813 12.658 12.813 15.938 M31.875 23.75C27.388 23.75 23.75 27.388 23.75 31.875C23.75 36.362 27.388 40 31.875 40C36.362 40 40 36.362 40 31.875C39.993 27.391 36.359 23.757 31.875 23.75 M35.15 29.85C35.146 31.296 34.197 32.57 32.813 32.988 V33.438C32.813 33.955 32.393 34.375 31.875 34.375C31.357 34.375 30.938 33.955 30.938 33.438 V32.75C30.944 32.008 31.463 31.37 32.188 31.212C32.902 31.049 33.369 30.362 33.259 29.638C33.149 28.913 32.499 28.396 31.769 28.452C31.038 28.508 30.474 29.117 30.475 29.85C30.475 30.368 30.055 30.788 29.538 30.788C29.02 30.788 28.6 30.368 28.6 29.85C28.525 28.629 29.133 27.468 30.179 26.835C31.226 26.202 32.537 26.202 33.583 26.835C34.629 27.468 35.238 28.629 35.163 29.85 M31.875 35.625C32.565 35.625 33.125 36.185 33.125 36.875C33.125 37.565 32.565 38.125 31.875 38.125C31.185 38.125 30.625 37.565 30.625 36.875C30.625 36.185 31.185 35.625 31.875 35.625"></path></g></g></g><g id="g-root-ic_csv_dhbmv0pl845o-fill" data-item-order="999999100" transform="translate(292, 410)"><g id="ic_csv_dhbmv0pl845o-fill-merged" stroke="none" fill="#2c2c2c"><g><path d="M26.766 10.462C26.908 10.469 27.049 10.487 27.188 10.516 V16.53C27.188 18.059 28.427 19.299 29.956 19.299 H35.625 V36.774C35.625 38.303 34.385 39.543 32.856 39.543 H17.144C15.615 39.543 14.375 38.303 14.375 36.774 V13.228C14.375 11.699 15.615 10.459 17.144 10.459 H26.766 M19.688 29.753C19.342 29.753 19.063 30.033 19.063 30.378C19.063 30.724 19.342 31.003 19.688 31.003 H27.188C27.533 31.003 27.813 30.724 27.813 30.378C27.813 30.033 27.533 29.753 27.188 29.753 H19.688 M19.688 25.64C19.342 25.64 19.063 25.92 19.063 26.265C19.063 26.61 19.342 26.89 19.688 26.89 H30.313C30.658 26.89 30.938 26.61 30.938 26.265C30.938 25.92 30.658 25.64 30.313 25.64 H19.688 M19.688 21.721C19.342 21.721 19.063 22.001 19.063 22.346C19.063 22.691 19.342 22.971 19.688 22.971 H30.313C30.658 22.971 30.938 22.691 30.938 22.346C30.938 22.001 30.658 21.721 30.313 21.721 H19.688 M28.438 11.13C28.479 11.165 28.52 11.202 28.559 11.24L34.784 17.278L34.882 17.379C35.069 17.579 35.223 17.806 35.342 18.049 H29.956C29.117 18.049 28.438 17.369 28.438 16.53 V11.13"></path></g></g></g><g id="g-root-ic_tran_4ik96kpku3nt-fill" data-item-order="999999100" transform="translate(438, 410)"><g id="ic_tran_4ik96kpku3nt-fill-merged" stroke="none" fill="#2c2c2c"><g><path d="M18.125 15.313C17.61 15.319 17.194 15.735 17.188 16.25 V16.875C17.188 17.048 17.327 17.188 17.5 17.188 H18.75C18.923 17.188 19.063 17.048 19.063 16.875 V16.25C19.056 15.735 18.64 15.319 18.125 15.313 M31.525 31.563C31.423 31.561 31.328 31.613 31.275 31.7C31.226 31.79 31.226 31.898 31.275 31.987C31.374 32.253 31.5 32.509 31.65 32.75C31.699 32.851 31.801 32.914 31.913 32.912C32.026 32.91 32.131 32.849 32.187 32.75C32.329 32.506 32.45 32.251 32.55 31.987C32.599 31.898 32.599 31.79 32.55 31.7C32.497 31.613 32.402 31.561 32.3 31.563 H31.525 M38.125 23.75 H28.438C28.265 23.75 28.125 23.89 28.125 24.063 V27.188C28.118 27.702 27.702 28.118 27.188 28.125 H23.438C23.265 28.125 23.125 28.265 23.125 28.438 V38.125C23.125 39.161 23.964 40 25 40 H38.125C39.161 40 40 39.161 40 38.125 V25.625C40 24.589 39.161 23.75 38.125 23.75 M28.125 29.688 H30.625C30.798 29.688 30.938 29.548 30.938 29.375 V28.75C30.938 28.232 31.357 27.813 31.875 27.813C32.393 27.813 32.813 28.232 32.813 28.75 V29.375C32.813 29.548 32.952 29.688 33.125 29.688 H35.625C36.143 29.688 36.563 30.107 36.563 30.625C36.563 31.143 36.143 31.563 35.625 31.563 H34.838C34.697 31.568 34.575 31.664 34.537 31.8C34.331 32.66 33.957 33.472 33.438 34.188C33.408 34.264 33.408 34.349 33.437 34.425C33.461 34.511 33.514 34.587 33.588 34.638C34.127 34.945 34.702 35.184 35.3 35.35C35.648 35.415 35.93 35.671 36.028 36.011C36.126 36.352 36.024 36.718 35.765 36.959C35.505 37.2 35.132 37.274 34.8 37.15C33.835 36.891 32.922 36.468 32.1 35.9C31.995 35.825 31.855 35.825 31.75 35.9C30.93 36.471 30.016 36.894 29.05 37.15C28.718 37.274 28.345 37.2 28.085 36.959C27.826 36.718 27.724 36.352 27.822 36.011C27.92 35.671 28.202 35.415 28.55 35.35C29.148 35.184 29.723 34.945 30.263 34.638C30.336 34.587 30.389 34.511 30.413 34.425C30.442 34.349 30.442 34.264 30.412 34.188C29.893 33.472 29.519 32.66 29.313 31.8C29.275 31.664 29.153 31.568 29.012 31.562 H28.125C27.607 31.563 27.188 31.143 27.188 30.625C27.188 30.107 27.607 29.688 28.125 29.688 M25.938 26.25C26.11 26.25 26.25 26.11 26.25 25.938 V11.875C26.25 10.839 25.411 10 24.375 10 H11.875C10.839 10 10 10.839 10 11.875 V24.375C10 25.411 10.839 26.25 11.875 26.25 H25.938 M17.5 19.063C17.327 19.063 17.188 19.202 17.188 19.375 V21.875C17.188 22.393 16.768 22.813 16.25 22.813C15.732 22.813 15.313 22.393 15.313 21.875 V16.25C15.313 14.697 16.572 13.438 18.125 13.438C19.678 13.438 20.938 14.697 20.938 16.25 V21.875C20.938 22.393 20.518 22.813 20 22.813C19.482 22.813 19.063 22.393 19.063 21.875 V19.375C19.063 19.202 18.923 19.063 18.75 19.063 H17.5"></path></g></g></g><g id="g-root-tx_assistan_1d3mid8pkwy6k-fill" data-item-order="1000000000" transform="translate(474, 137)"><g id="tx_assistan_1d3mid8pkwy6k-fill-merged" stroke="none" fill="#2c2c2c"><g><text style="font: 20px Roboto, sans-serif; white-space: pre;" font-size="20px" font-family="Roboto, sans-serif"><tspan x="12" y="34" dominant-baseline="ideographic">AssistantOutput</tspan></text></g></g></g><g id="g-root-tx_nexusage_qs5o58pkzqby-fill" data-item-order="1000000000" transform="translate(98, 215)"><g id="tx_nexusage_qs5o58pkzqby-fill-merged" stroke="none" fill="#2c2c2c"><g><text style="font: 20px Roboto, sans-serif; white-space: pre;" font-size="20px" font-family="Roboto, sans-serif"><tspan x="19.38" y="34" dominant-baseline="ideographic">NexusAgent</tspan></text></g></g></g><g id="g-root-tx_codegena_1ha2t18pl9ix5-fill" data-item-order="1000000000" transform="translate(542, 215)"><g id="tx_codegena_1ha2t18pl9ix5-fill-merged" stroke="none" fill="#2c2c2c"><g><text style="font: 20px Roboto, sans-serif; white-space: pre;" font-size="20px" font-family="Roboto, sans-serif"><tspan x="12" y="34" dominant-baseline="ideographic">CodeGenAgent</tspan></text></g></g></g><g id="g-root-tx_nexussys_i09f98pl5dse-fill" data-item-order="1000000000" transform="translate(338, 290)"><g id="tx_nexussys_i09f98pl5dse-fill-merged" stroke="none" fill="#2c2c2c"><g><text style="font: 20px Roboto, sans-serif; white-space: pre;" font-size="20px" font-family="Roboto, sans-serif"><tspan x="18.84" y="34" dominant-baseline="ideographic">NEXUS </tspan><tspan x="17.18" y="58" dominant-baseline="ideographic">System</tspan></text></g></g></g><g id="g-root-tx_errorexp_vb3jp8pl15og-fill" data-item-order="1000000000" transform="translate(26, 335)"><g id="tx_errorexp_vb3jp8pl15og-fill-merged" stroke="none" fill="#2c2c2c"><g><text style="font: 20px Roboto, sans-serif; white-space: pre;" font-size="20px" font-family="Roboto, sans-serif"><tspan x="23.06" y="34" dominant-baseline="ideographic">ErrorExplainerAgent</tspan></text></g></g></g><g id="g-root-tx_coderevi_mb34osplaz2a-fill" data-item-order="1000000000" transform="translate(542, 335)"><g id="tx_coderevi_mb34osplaz2a-fill-merged" stroke="none" fill="#2c2c2c"><g><text style="font: 20px Roboto, sans-serif; white-space: pre;" font-size="20px" font-family="Roboto, sans-serif"><tspan x="12" y="34" dominant-baseline="ideographic">CodeReviewAgent</tspan></text></g></g></g><g id="g-root-tx_llm_qp1apopku4g0-fill" data-item-order="1000000000" transform="translate(474, 413)"><g id="tx_llm_qp1apopku4g0-fill-merged" stroke="none" fill="#2c2c2c"><g><text style="font: 20px Roboto, sans-serif; white-space: pre;" font-size="20px" font-family="Roboto, sans-serif"><tspan x="12" y="34" dominant-baseline="ideographic">LLM</tspan></text></g></g></g><g id="g-root-tx_userinpu_4ot01oplf5sf-fill" data-item-order="1000000000" transform="translate(190, 137)"><g id="tx_userinpu_4ot01oplf5sf-fill-merged" stroke="none" fill="#2c2c2c"><g><text style="font: 20px Roboto, sans-serif; white-space: pre;" font-size="20px" font-family="Roboto, sans-serif"><tspan x="18.04" y="34" dominant-baseline="ideographic">UserInput</tspan></text></g></g></g><g id="g-root-tx_codedoca_143m6ikpl845n-fill" data-item-order="1000000000" transform="translate(142, 413)"><g id="tx_codedoca_143m6ikpl845n-fill-merged" stroke="none" fill="#2c2c2c"><g><text style="font: 20px Roboto, sans-serif; white-space: pre;" font-size="20px" font-family="Roboto, sans-serif"><tspan x="18.21" y="34" dominant-baseline="ideographic">CodeDocAgent</tspan></text></g></g></g><g id="g-root-ro_9lvukpl5czs-stroke" data-item-order="-19800" transform="translate(314, 212)"><g id="ro_9lvukpl5czs-stroke" fill="none" stroke-linecap="round" stroke-linejoin="round" stroke-miterlimit="4" stroke="#2c2c2c" stroke-width="2"><g><path d="M 34 10L 118 10C 118 10 142 10 142 34L 142 136C 142 136 142 160 118 160L 34 160C 34 160 10 160 10 136L 10 34C 10 34 10 10 34 10"></path></g></g></g><g id="g-root-ro_94mi64pl14wa-stroke" data-item-order="-13608" transform="translate(14, 320)"><g id="ro_94mi64pl14wa-stroke" fill="none" stroke-linecap="round" stroke-linejoin="round" stroke-miterlimit="4" stroke="#2c2c2c" stroke-width="2"><g><path d="M 22 10L 250 10C 250 10 262 10 262 22L 262 52C 262 52 262 64 250 64L 22 64C 22 64 10 64 10 52L 10 22C 10 22 10 10 22 10"></path></g></g></g><g id="g-root-ro_4m35oplaya4-stroke" data-item-order="-12312" transform="translate(494, 320)"><g id="ro_4m35oplaya4-stroke" fill="none" stroke-linecap="round" stroke-linejoin="round" stroke-miterlimit="4" stroke="#2c2c2c" stroke-width="2"><g><path d="M 22 10L 226 10C 226 10 238 10 238 22L 238 52C 238 52 238 64 226 64L 22 64C 22 64 10 64 10 52L 10 22C 10 22 10 10 22 10"></path></g></g></g><g id="g-root-ro_v2zdkspkybye-stroke" data-item-order="-11664" transform="translate(426, 122)"><g id="ro_v2zdkspkybye-stroke" fill="none" stroke-linecap="round" stroke-linejoin="round" stroke-miterlimit="4" stroke="#2c2c2c" stroke-width="2"><g><path d="M 22 10L 214 10C 214 10 226 10 226 22L 226 52C 226 52 226 64 214 64L 22 64C 22 64 10 64 10 52L 10 22C 10 22 10 10 22 10"></path></g></g></g><g id="g-root-ro_91i4qkpl84xx-stroke" data-item-order="-11016" transform="translate(130, 398)"><g id="ro_91i4qkpl84xx-stroke" fill="none" stroke-linecap="round" stroke-linejoin="round" stroke-miterlimit="4" stroke="#2c2c2c" stroke-width="2"><g><path d="M 22 10L 202 10C 202 10 214 10 214 22L 214 52C 214 52 214 64 202 64L 22 64C 22 64 10 64 10 52L 10 22C 10 22 10 10 22 10"></path></g></g></g><g id="g-root-ro_qns9dopl9ix7-stroke" data-item-order="-11016" transform="translate(494, 200)"><g id="ro_qns9dopl9ix7-stroke" fill="none" stroke-linecap="round" stroke-linejoin="round" stroke-miterlimit="4" stroke="#2c2c2c" stroke-width="2"><g><path d="M 22 10L 202 10C 202 10 214 10 214 22L 214 52C 214 52 214 64 202 64L 22 64C 22 64 10 64 10 52L 10 22C 10 22 10 10 22 10"></path></g></g></g><g id="g-root-ro_hx54zgpkzoqo-stroke" data-item-order="-9720" transform="translate(86, 200)"><g id="ro_hx54zgpkzoqo-stroke" fill="none" stroke-linecap="round" stroke-linejoin="round" stroke-miterlimit="4" stroke="#2c2c2c" stroke-width="2"><g><path d="M 22 10L 178 10C 178 10 190 10 190 22L 190 52C 190 52 190 64 178 64L 22 64C 22 64 10 64 10 52L 10 22C 10 22 10 10 22 10"></path></g></g></g><g id="g-root-ro_1lyn1j0plf7yh-stroke" data-item-order="-8424" transform="translate(178, 122)"><g id="ro_1lyn1j0plf7yh-stroke" fill="none" stroke-linecap="round" stroke-linejoin="round" stroke-miterlimit="4" stroke="#2c2c2c" stroke-width="2"><g><path d="M 22 10L 154 10C 154 10 166 10 166 22L 166 52C 166 52 166 64 154 64L 22 64C 22 64 10 64 10 52L 10 22C 10 22 10 10 22 10"></path></g></g></g><g id="g-root-ro_2qr24pku4g2-stroke" data-item-order="-5832" transform="translate(426, 398)"><g id="ro_2qr24pku4g2-stroke" fill="none" stroke-linecap="round" stroke-linejoin="round" stroke-miterlimit="4" stroke="#2c2c2c" stroke-width="2"><g><path d="M 22 10L 106 10C 106 10 118 10 118 22L 118 52C 118 52 118 64 106 64L 22 64C 22 64 10 64 10 52L 10 22C 10 22 10 10 22 10"></path></g></g></g><g id="g-root-cu_147zi4cplf766-stroke" data-item-order="0" transform="translate(334, 362)"><g id="cu_147zi4cplf766-stroke" fill="none" stroke-linecap="round" stroke-linejoin="round" stroke-miterlimit="4" stroke="#f4f4f4" stroke-width="2" stroke-dasharray="5.0, 7.0"><g><path d="M 34 10L 34 17.9L 34 52.1C 34 63.642753 24.64275 73.000002 13.099999 73.000001L 13 73L 10 73"></path></g></g></g><g id="g-root-cu_v2zgqkpku32f-stroke" data-item-order="0" transform="translate(402, 149)"><g id="cu_v2zgqkpku32f-stroke" fill="none" stroke-linecap="round" stroke-linejoin="round" stroke-miterlimit="4" stroke="#f4f4f4" stroke-width="2" stroke-dasharray="5.0, 7.0"><g><path d="M 10 73L 10 65.1L 10 30.9C 10 19.357248 19.357248 10 30.899998 10L 31 10L 34 10"></path></g></g></g><g id="g-root-cu_1hjg0hoplf5ky-stroke" data-item-order="0" transform="translate(266, 227)"><g id="cu_1hjg0hoplf5ky-stroke" fill="none" stroke-linecap="round" stroke-linejoin="round" stroke-miterlimit="4" stroke="#f4f4f4" stroke-width="2" stroke-dasharray="5.0, 7.0"><g><path d="M 58 45L 55 45L 54.9 45C 50.422131 44.972593 45.63978 43.214375 41.299999 40C 38.67988 38.118536 36.018569 33.561496 33.999999 27.499999C 31.98143 21.438501 29.320119 16.881461 26.699999 15C 22.360218 11.785625 17.577867 10.027408 13.1 10L 13 10L 10 10"></path></g></g></g><g id="g-root-tx_nexussys_v2zgqkpku32i-stroke" data-item-order="0" transform="translate(110, 38)"></g><g id="g-root-cu_18nt08splf6dp-stroke" data-item-order="0" transform="translate(446, 227)"><g id="cu_18nt08splf6dp-stroke" fill="none" stroke-linecap="round" stroke-linejoin="round" stroke-miterlimit="4" stroke="#f4f4f4" stroke-width="2" stroke-dasharray="5.0, 7.0"><g><path d="M 10 45L 13 45L 13.1 45C 17.577866 44.972592 22.360217 43.214375 26.699999 40C 29.320119 38.118536 31.98143 33.561497 33.999999 27.499999C 36.018569 21.438502 38.67988 16.881462 41.299999 15C 45.63978 11.785625 50.422131 10.027407 54.899998 9.999999L 55 10L 58 10"></path></g></g></g><g id="g-root-cu_zs5zzwplf7yk-stroke" data-item-order="0" transform="translate(334, 149)"><g id="cu_zs5zzwplf7yk-stroke" fill="none" stroke-linecap="round" stroke-linejoin="round" stroke-miterlimit="4" stroke="#f4f4f4" stroke-width="2" stroke-dasharray="5.0, 7.0"><g><path d="M 34 73L 34 65.1L 34 30.9C 33.999998 19.357248 24.64275 10 13.1 10L 13 10L 10 10"></path></g></g></g><g id="g-root-cu_147zi4cplf763-stroke" data-item-order="0" transform="translate(266, 312)"><g id="cu_147zi4cplf763-stroke" fill="none" stroke-linecap="round" stroke-linejoin="round" stroke-miterlimit="4" stroke="#f4f4f4" stroke-width="2" stroke-dasharray="5.0, 7.0"><g><path d="M 58 10L 55 10L 54.9 10C 50.422131 10.027407 45.63978 11.785625 41.299998 15C 38.67988 16.881462 36.018569 21.438502 33.999999 27.499999C 31.98143 33.561497 29.320119 38.118536 26.699999 39.999998C 22.360217 43.214375 17.577866 44.972592 13.099999 45L 13 45L 10 45"></path></g></g></g><g id="g-root-cu_1d3mid8plf6dc-stroke" data-item-order="0" transform="translate(446, 312)"><g id="cu_1d3mid8plf6dc-stroke" fill="none" stroke-linecap="round" stroke-linejoin="round" stroke-miterlimit="4" stroke="#f4f4f4" stroke-width="2" stroke-dasharray="5.0, 7.0"><g><path d="M 10 10L 13 10L 13.1 10C 17.577867 10.027408 22.360218 11.785625 26.699999 15C 29.320119 16.881461 31.98143 21.438501 33.999999 27.499999C 36.018569 33.561496 38.67988 38.118536 41.299999 39.999998C 45.63978 43.214375 50.422131 44.972593 54.899998 45L 55 45L 58 45"></path></g></g></g><g id="g-root-cu_zs5zzwplf7yh-stroke" data-item-order="0" transform="translate(402, 362)"><g id="cu_zs5zzwplf7yh-stroke" fill="none" stroke-linecap="round" stroke-linejoin="round" stroke-miterlimit="4" stroke="#f4f4f4" stroke-width="2" stroke-dasharray="5.0, 7.0"><g><path d="M 10 10L 10 17.9L 10 52.1C 9.999998 63.64275 19.357246 72.999999 30.899997 72.999999L 31 73L 34 73"></path></g></g></g><g id="g-root-ic_acce_4pfdz0pl5c7j-stroke" data-item-order="999997696" transform="translate(356, 236)"></g><g id="g-root-ic_cog_dhbmv0pkzor3-stroke" data-item-order="999999100" transform="translate(224, 212)"></g><g id="g-root-ic_spar_zissjgpl9laa-stroke" data-item-order="999999100" transform="translate(506, 212)"></g><g id="g-root-ic_pict_zisvp8pkyb65-stroke" data-item-order="999999100" transform="translate(438, 134)"></g><g id="g-root-ic_404_i09if0pl143l-stroke" data-item-order="999999100" transform="translate(224, 332)"></g><g id="g-root-ic_badg_9093ekplaxhf-stroke" data-item-order="999999100" transform="translate(506, 332)"></g><g id="g-root-ic_ques_1uua1rwplf75s-stroke" data-item-order="999999100" transform="translate(292, 134)"></g><g id="g-root-ic_csv_dhbmv0pl845o-stroke" data-item-order="999999100" transform="translate(292, 410)"></g><g id="g-root-ic_tran_4ik96kpku3nt-stroke" data-item-order="999999100" transform="translate(438, 410)"></g><g id="g-root-tx_assistan_1d3mid8pkwy6k-stroke" data-item-order="1000000000" transform="translate(474, 137)"></g><g id="g-root-tx_nexusage_qs5o58pkzqby-stroke" data-item-order="1000000000" transform="translate(98, 215)"></g><g id="g-root-tx_codegena_1ha2t18pl9ix5-stroke" data-item-order="1000000000" transform="translate(542, 215)"></g><g id="g-root-tx_nexussys_i09f98pl5dse-stroke" data-item-order="1000000000" transform="translate(338, 290)"></g><g id="g-root-tx_errorexp_vb3jp8pl15og-stroke" data-item-order="1000000000" transform="translate(26, 335)"></g><g id="g-root-tx_coderevi_mb34osplaz2a-stroke" data-item-order="1000000000" transform="translate(542, 335)"></g><g id="g-root-tx_llm_qp1apopku4g0-stroke" data-item-order="1000000000" transform="translate(474, 413)"></g><g id="g-root-tx_userinpu_4ot01oplf5sf-stroke" data-item-order="1000000000" transform="translate(190, 137)"></g><g id="g-root-tx_codedoca_143m6ikpl845n-stroke" data-item-order="1000000000" transform="translate(142, 413)"></g></g></g><path id="w18k2op8m9iolr" d="M65.283 12.757a.35.35 0 0 0 .584.157l5.203-5.141-6.183 3.523.396 1.461zm-2.216-11.7a.35.35 0 0 0-.522.305v3.111l3.276-1.868-2.754-1.548zm3.728 2.105l-4.25 2.421v2.445l6.391-3.644-2.141-1.222zm4.708 3.303a.35.35 0 0 0 0-.609l-1.592-.9-7.365 4.199v1.782a.35.35 0 0 0 .523.305l8.435-4.777z M44.542 2.513c0-.433.355-.783.792-.783s.792.35.792.783-.355.783-.792.783-.792-.35-.792-.783zm59.171 0c0-.433.355-.783.792-.783s.792.35.792.783-.355.783-.792.783-.792-.35-.792-.783zm-85.951 7.636h-1.27v-.487c-.276.201-.864.609-1.881.609-1.202 0-2.274-.794-2.137-2.078.118-1.106 1.153-1.584 1.848-1.727l2.17-.345c0-.539-.29-.956-1.064-1.006s-1.21.305-1.571 1.017l-1.124-.605c1.218-2.631 5.029-1.764 5.029.414v4.207zm-1.27-2.86c.006.396-.062 1.112-.819 1.59-.587.37-1.841.299-1.903-.395-.049-.555.461-.791.906-.898l1.816-.297zm72.662 2.86h-1.27v-.487c-.276.201-.864.609-1.881.609-1.202 0-2.274-.794-2.137-2.078.118-1.106 1.153-1.584 1.848-1.727l2.17-.345c0-.539-.29-.956-1.064-1.006s-1.21.305-1.571 1.017l-1.124-.605c1.218-2.631 5.029-1.764 5.029.414v4.207zm-1.27-2.86c.006.396-.062 1.112-.82 1.59-.587.37-1.841.299-1.903-.395-.049-.555.461-.791.906-.898l1.816-.297zM99.096 10.149H97.85v-8.45h1.246v4.895l2.68-2.559h1.738l-2.633 2.535 2.715 3.578h-1.556l-2.077-2.707-.867.844v1.863zm6.053-6.114h-1.255v6.113h1.255V4.035zm-59.2 0h-1.255v6.113h1.255V4.035zm5.584 6.113V1.697h1.255v2.695c.361-.346 1-.485 1.47-.485 1.452 0 2.477 1.082 2.457 2.448v3.792h-1.27v-3.68c0-.408-.214-1.339-1.315-1.339-.968 0-1.342.756-1.342 1.339v3.681h-1.255zm-4.76-4.894V4.039h.621a.45.45 0 0 0 .45-.45v-.855h1.251v1.305h1.309v1.215h-1.309v3.109c0 .293.105.664.648.664.365 0 .531-.035.736-.07v1.137s-.361.113-.857.113c-1.398 0-1.777-1.051-1.777-1.788V5.254h-1.071zM36.528 4.039h-1.394l2.191 6.106h1.125l1.234-3.918 1.238 3.918h1.129l2.188-6.106h-1.383l-1.359 3.93-1.256-3.93h-1.124l-1.242 3.957-1.348-3.957zM26.212 7.141c-.02 1.566 1.187 3.129 3.223 3.129 1.566 0 2.383-.918 2.734-1.719L31.172 8c-.315.399-.801 1.094-1.738 1.094-1.145 0-1.825-.781-1.891-1.52h4.625c.074-.284.148-.995-.03-1.559-.336-1.064-1.221-2.102-2.839-2.102s-3.088 1.152-3.088 3.227zm1.363-.75h3.348c-.055-.43-.566-1.301-1.623-1.301a1.79 1.79 0 0 0-1.725 1.301zm-8.758.75c.038 1.758 1.277 3.133 3.145 3.133 1.074 0 1.723-.477 1.961-.672v.547h1.242V1.703h-1.258v2.888c-.414-.36-1.062-.68-1.93-.68-1.91 0-3.198 1.473-3.16 3.23zm1.309-.08c0 1.119.723 1.978 1.836 1.978a1.88 1.88 0 0 0 1.94-1.904c0-1.371-1.011-1.99-1.972-1.99s-1.805.798-1.805 1.916zm76.683-.028C96.771 5.275 95.532 3.9 93.664 3.9c-1.074 0-1.723.477-1.961.672v-.547h-1.242v8.22h1.258V9.583c.414.36 1.063.68 1.93.68 1.91 0 3.198-1.473 3.16-3.23zm-1.309.08c0-1.119-.723-1.978-1.836-1.978a1.88 1.88 0 0 0-1.94 1.904c0 1.371 1.011 1.99 1.972 1.99S95.5 8.231 95.5 7.113zM106.441 10.173V4.036h1.254v.382c.361-.346 1-.485 1.47-.485 1.452 0 2.477 1.082 2.457 2.448v3.792h-1.27V6.492c0-.408-.214-1.339-1.315-1.339-.969 0-1.342.756-1.342 1.339v3.681h-1.254zm-30.383-.021V1.824h1.084l4.215 5.777V1.824h1.32v8.328h-1.094l-4.207-5.796v5.796h-1.319zM5.24 10.149H4V2.377h1.014l2.664 3.597 2.654-3.592h1.03v7.766h-1.256V4.762L7.678 8.068 5.24 4.742v5.407z" transform="translate(620, 476)" fill="#ababab88" stroke="none"></path></svg>